<?xml version="1.0" encoding="utf-8"?>
<!-- Generator: Adobe Illustrator 23.0.3, SVG Export Plug-In . SVG Version: 6.00 Build 0)  -->
<svg version="1.0" id="Layer_1" xmlns="http://www.w3.org/2000/svg" xmlns:xlink="http://www.w3.org/1999/xlink" x="0px" y="0px"
	 viewBox="0 0 179 146" style="enable-background:new 0 0 179 146;" xml:space="preserve">
<style type="text/css">
	.st0{fill:#090A0A;}
</style>
<g>
	<path class="st0" d="M5.39,20.6h10.5c6.68,0,9.5,3.11,9.5,10.13v13.22c0,7-2.83,9.85-9.5,9.85H5.39V20.6z M15.38,47.83
		c2.32,0,3.08-1.03,3.08-3.63V30.44c0-2.57-0.77-3.63-3.08-3.63h-3.06v21.01h3.06V47.83z"/>
	<path class="st0" d="M31.03,19.82h6.4v7.26h-6.4V19.82z M31.03,29.67h6.4V53.8h-6.4V29.67z"/>
	<path class="st0" d="M58.96,38.75c0,5.71-2.83,8.57-8.21,8.57c-0.25,0.51-0.51,1.03-0.51,1.57c0,0.52,0.51,0.77,1.02,1.03
		l3.08,0.26c3.85,0.52,5.63,2.08,5.63,6.74c0,5.19-3.34,7.28-9.23,7.28c-2.57,0-5.63-0.26-7.69-1.31l0.79-5.19
		c2.3,0.79,4.61,1.05,6.65,1.05c2.29,0,3.34-0.26,3.34-1.57c0-1.03-0.51-1.29-1.8-1.29l-3.85-0.77c-2.8-0.26-4.34-1.82-4.34-4.16
		c0-2.06,0.76-3.37,2.3-4.4c-2.83-1.31-4.1-3.63-4.1-7.8v-1.03c0-5.45,2.83-8.57,8.46-8.57c1.27,0,2.57,0.26,3.34,0.51H61v3.91
		l-2.55,0.78c0.51,0.77,0.51,2.06,0.51,3.37V38.75z M52.79,37.2c0-2.08-0.76-2.85-2.29-2.85c-1.28,0-2.04,0.77-2.04,2.85v2.6
		c0,1.54,0.51,2.32,2.04,2.32s2.29-0.77,2.29-2.32V37.2z"/>
	<path class="st0" d="M64.59,19.82h6.4v7.26h-6.4V19.82z M64.59,29.67h6.4V53.8h-6.4V29.67z"/>
	<path class="st0" d="M88.68,53.54c-1.27,0.52-3.06,0.77-4.87,0.77c-4.61,0-5.89-2.58-5.89-5.97V35.38h-2.57v-5.71h2.57v-6.48
		l6.4-0.77v7.25h4.61l-0.26,5.71h-4.36v11.68c0,1.03,0.51,1.55,1.8,1.55c0.77,0,1.53,0,2.04-0.26L88.68,53.54z"/>
	<path class="st0" d="M109.7,53.8h-5.13l-0.77-1.54c-1.29,1.03-3.34,2.06-5.65,2.06c-4.61,0-5.89-2.85-5.89-7.77
		c0-5.2,1.79-7.28,6.93-7.28h3.83V37.2c0-1.82-0.76-2.34-3.06-2.34c-2.07,0-3.84,0.51-5.65,1.29l-1.03-5.43
		c2.06-1.05,5.13-1.57,8.47-1.57c5.37,0,7.95,1.57,7.95,6.74C109.7,35.89,109.7,53.8,109.7,53.8z M103.02,44.72h-2.55
		c-1.28,0-1.8,0.52-1.8,2.08c0,1.54,0.53,2.34,2.06,2.34c1.02,0,1.78-0.26,2.29-0.54C103.02,48.6,103.02,44.72,103.02,44.72z"/>
	<polygon class="st0" points="115.08,53.8 115.08,19.82 121.73,18.79 121.73,53.8 	"/>
	<path class="st0" d="M136.87,43.17c0-3.65,1.53-4.94,3.84-5.97c-2.31-1.31-3.09-2.85-3.09-5.45v-3.11c0-6.74,3.59-8.56,9.74-8.56
		c3.09,0,5.89,0.51,7.7,1.31l-0.79,5.43c-2.04-0.77-4.33-1.03-6.65-1.03c-2.3,0-3.59,0.78-3.59,3.11v3.11
		c0,1.56,0.77,2.34,2.58,2.34h12.02v5.71h-3.06v13.22c-2.82,0.77-6.16,1.29-9.22,1.29c-6.42,0-9.48-2.58-9.48-8.28L136.87,43.17
		L136.87,43.17z M146.61,49.14c1.02,0,2.04,0,2.81-0.26v-8.82h-2.81c-2.07,0-3.09,0.51-3.09,2.86v3.11
		C143.52,48.35,144.54,49.14,146.61,49.14"/>
	<path class="st0" d="M5.39,112.44h2.32l-0.76,4.15c0.51-0.77,1.27-1.03,2.3-1.03c2.04,0,3.08,1.54,3.08,3.37
		c0,2.6-1.55,5.43-4.36,5.43c-1.02,0-2.06-0.52-2.57-1.55l-0.26,1.29H3.1L5.39,112.44z M5.9,120.73c0,1.05,0.51,1.83,1.81,1.83
		c1.53,0,2.3-2.08,2.3-3.63c0-1.05-0.51-1.82-1.53-1.82C6.67,117.1,5.9,119.18,5.9,120.73"/>
	<path class="st0" d="M16.68,125.15c-0.79,1.55-1.55,1.81-3.08,1.81h-1.27l0.25-2.06c0.51,0,0.76,0.26,1.02,0.26
		c1.02,0,1.28-0.79,1.53-1.31l-1.53-8.28h2.3l0.79,6.22l2.81-6.22h2.57L16.68,125.15z"/>
	<polygon class="st0" points="28.96,112.44 31.54,112.44 30.52,116.84 35.13,116.84 36.15,112.44 38.7,112.44 36.15,124.1 
		33.83,124.1 34.87,118.93 30.26,118.93 29.22,124.1 26.67,124.1 	"/>
	<path class="st0" d="M47.67,116.59c0-1.57-0.77-2.34-2.04-2.34c-2.57,0-3.85,2.86-3.85,4.94c0,1.55,0.77,3.11,2.83,3.11
		c1.27,0,2.29-1.31,2.55-2.34h2.57c-1.02,3.11-2.83,4.4-5.38,4.4c-3.08,0-4.87-1.8-4.87-5.17c0-3.63,2.29-7.02,6.14-7.02
		c2.55,0,4.61,1.57,4.61,4.42L47.67,116.59L47.67,116.59z"/>
	<polygon class="st0" points="53.33,112.44 55.88,112.44 53.84,121.78 59.47,121.78 58.96,124.1 51.01,124.1 	"/>
	<polygon class="st0" points="69.72,114.5 66.12,114.5 66.38,112.44 76.14,112.44 75.6,114.5 72.29,114.5 70.23,124.1 67.67,124.1 	
		"/>
	<path class="st0" d="M75.86,120.47v0.52c0,0.79,0.53,1.57,1.81,1.57c1.02,0,1.27-0.51,1.79-1.31h2.06
		c-0.51,2.08-1.81,3.11-4.1,3.11c-2.32,0-3.85-1.29-3.85-3.89s1.79-4.91,4.61-4.91c2.3,0,3.85,1.03,3.85,3.63v1.29L75.86,120.47
		L75.86,120.47z M79.96,118.92c0-0.79-0.25-1.82-1.53-1.82c-1.27,0-2.04,1.03-2.3,1.82H79.96z"/>
	<path class="st0" d="M89.19,118.67c0-1.05-0.51-1.57-1.53-1.57c-1.53,0-2.3,2.08-2.3,3.63c0,1.05,0.51,1.83,1.53,1.83
		s1.78-0.77,2.04-1.57H91c-0.51,2.08-2.06,3.37-4.1,3.37c-2.32,0-3.85-1.29-3.85-3.63c0-2.86,1.79-5.17,4.87-5.17
		c2.07,0,3.59,0.77,3.59,3.11C91.51,118.67,89.19,118.67,89.19,118.67z"/>
	<path class="st0" d="M94.31,112.44h2.32l-0.77,4.15c0.26-0.52,1.28-1.03,2.81-1.03c1.56,0,2.31,0.77,2.31,2.06
		c0,0.51-0.25,1.31-0.25,1.57l-1.02,4.92h-2.33l1.02-4.92c0-0.26,0.26-0.77,0.26-1.05c0-0.51-0.51-0.77-1.02-0.77
		c-1.53,0-2.3,1.05-2.55,2.34l-0.79,4.4H92L94.31,112.44z"/>
	<path class="st0" d="M103.81,115.56h2.3l-0.25,1.29c0.76-1.03,1.53-1.29,2.83-1.29c1.53,0,2.3,0.77,2.3,2.06
		c0,0.51,0,1.31-0.26,1.57l-1.02,4.92h-2.07l1.05-4.92v-1.05c0-0.51-0.54-0.77-1.05-0.77c-1.27,0-2.04,1.05-2.29,2.34l-1.02,4.4H102
		L103.81,115.56z"/>
	<path class="st0" d="M117.37,115.56c2.06,0,3.85,1.03,3.85,3.37c0,3.11-1.79,5.43-4.88,5.43c-2.3,0-3.84-1.29-3.84-3.63
		C112.51,117.87,114.31,115.56,117.37,115.56 M116.35,122.55c1.81,0,2.58-2.08,2.58-3.63c0-1.05-0.51-1.82-1.8-1.82
		c-1.53,0-2.3,2.08-2.3,3.63C114.82,121.52,115.33,122.55,116.35,122.55"/>
	<polygon class="st0" points="124.31,112.44 126.6,112.44 124.31,124.1 121.99,124.1 	"/>
	<path class="st0" d="M131.49,115.56c2.3,0,3.83,1.03,3.83,3.37c0,3.11-1.79,5.43-4.87,5.43c-2.3,0-3.58-1.29-3.58-3.63
		C126.87,117.87,128.66,115.56,131.49,115.56 M130.7,122.55c1.55,0,2.31-2.08,2.31-3.63c0-1.05-0.51-1.82-1.53-1.82
		c-1.81,0-2.58,2.08-2.58,3.63C128.91,121.52,129.68,122.55,130.7,122.55"/>
	<path class="st0" d="M144.28,123.58c-0.76,2.6-1.78,3.63-4.6,3.63c-1.79,0-3.58-0.77-3.58-2.86h2.3c0,1.05,0.76,1.31,1.53,1.31
		c1.3,0,1.81-1.31,2.32-2.85c-0.76,0.77-1.53,1.03-2.32,1.03c-2.04,0-3.32-1.29-3.32-3.37c0-2.34,1.53-4.91,4.36-4.91
		c1.02,0,2.04,0.26,2.29,1.29h0.26l0.25-1.29h2.07L144.28,123.58z M138.91,120.21c0,1.03,0.51,2.08,1.53,2.08
		c1.56,0,2.58-1.83,2.58-3.37c0-1.05-0.51-1.82-1.79-1.82C139.68,117.1,138.91,118.92,138.91,120.21"/>
	<path class="st0" d="M148.13,115.56h2.32l-1.8,8.54h-2.3L148.13,115.56z M150.71,114.25h-2.33l0.26-1.8h2.31L150.71,114.25z"/>
	<path class="st0" d="M153.26,120.47v0.52c0,0.79,0.51,1.57,1.8,1.57c1.02,0,1.28-0.51,1.79-1.31h2.31
		c-0.79,2.08-2.06,3.11-4.35,3.11c-2.32,0-3.59-1.29-3.59-3.89s1.53-4.91,4.35-4.91c2.3,0,3.85,1.03,3.85,3.63v1.29L153.26,120.47
		L153.26,120.47z M157.36,118.92c0-0.79-0.26-1.82-1.53-1.82c-1.28,0-2.06,1.03-2.32,1.82H157.36z"/>
	<path class="st0" d="M166.08,118.13c0-0.77-0.51-1.03-1.28-1.03s-1.55,0-1.55,0.77c0,0.26,0.54,0.54,1.3,0.79l1.03,0.26
		c1.27,0.52,2.04,1.03,2.04,2.6c0,2.06-1.79,2.83-3.83,2.83c-1.56,0-3.6-0.77-3.6-2.58v-0.54h2.3v0.28c0,0.77,0.76,1.29,1.55,1.29
		c0.77,0,1.54-0.26,1.54-1.03c0-0.54-0.51-0.79-1.03-1.05L163,120.2c-1.28-0.26-1.79-0.77-1.79-2.08c0-2.06,2.04-2.57,3.59-2.57
		c1.79,0,3.32,0.51,3.32,2.57h-2.04V118.13z"/>
	<path class="st0" d="M10.51,63.39h7.44l7.44,33.21h-6.93l-1.02-6.74h-6.17L10,96.6H3.1L10.51,63.39z M16.42,83.64l-2.06-13.22
		l-2.04,13.22H16.42z"/>
	<path class="st0" d="M40,96.6V79.49c0-1.05-0.51-1.57-1.55-1.57c-1.02,0-1.79,0.26-2.3,0.52V96.6h-6.68V72.22h5.4l0.77,1.83
		c1.53-1.57,3.59-2.34,5.89-2.34c3.34,0,5.12,1.57,5.12,5.19v19.7H40z"/>
	<path class="st0" d="M68.95,96.6h-5.38l-0.76-1.8c-1.04,1.03-3.08,2.06-5.65,2.06c-4.36,0-5.89-2.86-5.89-7.51
		c0-5.45,2.06-7.26,7.19-7.26h3.85v-2.34c0-1.82-1.04-2.08-3.08-2.08c-2.06,0-4.1,0.26-5.63,1.03l-1.04-5.43
		c2.06-1.05,5.15-1.57,8.2-1.57c5.38,0,8.21,1.83,8.21,6.74V96.6H68.95z M62.3,87.26h-2.57c-1.53,0-1.79,0.52-1.79,2.08
		c0,1.82,0.26,2.34,2.04,2.34c0.76,0,1.79-0.26,2.32-0.52V87.26z"/>
	<polygon class="st0" points="74.33,96.6 74.33,62.36 80.75,61.33 80.75,96.6 	"/>
	<polygon class="st0" points="96.63,72.22 103.28,72.22 95.86,106.22 89.44,106.22 91.76,96.6 89.98,96.6 84.83,72.22 91.51,72.22 
		94.05,89.6 	"/>
	<path class="st0" d="M119.7,96.09c-1.28,0.52-2.83,0.77-4.87,0.77c-4.35,0-5.89-2.57-5.89-5.97V78.18h-2.56v-5.97h2.56v-6.48
		l6.66-0.51v7h4.35l-0.25,5.97h-4.1v11.68c0,0.77,0.25,1.31,1.53,1.31c0.79,0,1.55,0,2.06-0.28L119.7,96.09z"/>
	<path class="st0" d="M124.05,62.36h6.65v7.26h-6.65V62.36z M124.05,72.22h6.65V96.6h-6.65V72.22z"/>
	<path class="st0" d="M135.83,80.78c0-5.45,2.32-9.08,8.46-9.08c2.33,0,4.62,0.51,5.66,1.03l-0.79,5.45
		c-1.02-0.51-2.3-0.77-3.57-0.77c-2.33,0-3.08,1.29-3.08,3.37v7.28c0,2.06,0.76,3.11,3.08,3.11c1.27,0,2.55-0.28,3.57-0.54l0.79,5.2
		c-1.04,0.52-3.33,1.03-5.66,1.03c-6.14,0-8.46-3.37-8.46-9.08V80.78z"/>
	<path class="st0" d="M160.7,96.86c-2.32,0-4.87-0.26-6.93-1.03l0.79-5.45c1.79,0.79,3.57,1.05,5.63,1.05c1.79,0,2.3-0.54,2.3-1.83
		s-0.51-1.29-2.55-2.08c-5.38-1.8-6.43-3.11-6.43-8.29c0-5.71,3.08-7.53,8.46-7.53c2.32,0,4.62,0.51,6.42,1.31l-0.79,5.17
		c-1.53-0.52-3.32-1.03-5.38-1.03c-1.78,0-2.29,0.51-2.29,1.82c0,1.29,0.51,1.55,2.55,2.06c4.86,1.57,6.42,2.34,6.42,8.05
		C168.9,93.75,166.59,96.86,160.7,96.86"/>
</g>
</svg>
